<?xml version="1.0" encoding="UTF-8"?>
<!DOCTYPE svg PUBLIC "-//W3C//DTD SVG 1.1//EN" "http://www.w3.org/Graphics/SVG/1.1/DTD/svg11.dtd">
<!-- Creator: CorelDRAW -->
<svg xmlns="http://www.w3.org/2000/svg" xml:space="preserve" width="50px" height="50px" style="shape-rendering:geometricPrecision; text-rendering:geometricPrecision; image-rendering:optimizeQuality; fill-rule:evenodd; clip-rule:evenodd"
viewBox="0 0 49.1543 49.1543"
 xmlns:xlink="http://www.w3.org/1999/xlink">
 <defs>
  <style type="text/css">
   <![CDATA[
    .fil0 {fill:white;fill-rule:nonzero}
   ]]>
  </style>
 </defs>
 <g id="Слой_x0020_1">
  <metadata id="CorelCorpID_0Corel-Layer"/>
  <path class="fil0" d="M24.5764 49.1543c-13.5516,0 -24.5764,-11.0248 -24.5764,-24.5764 0,-13.5531 11.0248,-24.578 24.5764,-24.578 13.5528,0 24.578,11.0248 24.578,24.578 0,13.5516 -11.0252,24.5764 -24.578,24.5764zm0 -47.4886c-12.6291,0 -22.9114,10.2764 -22.9114,22.9122 0,12.6291 10.2823,22.9055 22.9114,22.9055 12.6307,0 22.911,-10.2764 22.911,-22.9055 0,-12.6358 -10.2803,-22.9122 -22.911,-22.9122z"/>
  <path class="fil0" d="M27.4083 33.2031c-0.216535,0 -0.427559,-0.0807087 -0.590157,-0.242913l-8.14449 -8.15039c-0.319685,-0.325197 -0.319685,-0.851181 0,-1.17638l8.14449 -8.14803c0.324803,-0.326772 0.851181,-0.326772 1.17638,0 0.326378,0.324803 0.326378,0.850787 0,1.17598l-7.55118 7.55787 7.55709 7.56299c0.320472,0.325197 0.320472,0.851181 0,1.17795 -0.168504,0.162205 -0.379528,0.242913 -0.592126,0.242913z"/>
 </g>
</svg>
