<?xml version="1.0" encoding="UTF-8"?>
<!DOCTYPE svg PUBLIC "-//W3C//DTD SVG 1.1//EN" "http://www.w3.org/Graphics/SVG/1.1/DTD/svg11.dtd">
<!-- Creator: CorelDRAW -->
<svg xmlns="http://www.w3.org/2000/svg" xml:space="preserve" width="50px" height="50px" style="shape-rendering:geometricPrecision; text-rendering:geometricPrecision; image-rendering:optimizeQuality; fill-rule:evenodd; clip-rule:evenodd"
viewBox="0 0 14.1209 14.1208"
 xmlns:xlink="http://www.w3.org/1999/xlink">
 <defs>
  <style type="text/css">
   <![CDATA[
    .fil0 {fill:#445897}
    .fil1 {fill:#FEFEFE}
   ]]>
  </style>
 </defs>
 <g id="Слой_x0020_1">
  <metadata id="CorelCorpID_0Corel-Layer"/>
  <path class="fil0" d="M14.1209 7.06042c0,3.89934 -3.16116,7.0604 -7.0605,7.0604 -3.89947,0 -7.06042,-3.16106 -7.06042,-7.0604 0,-3.89945 3.16095,-7.06042 7.06042,-7.06042 3.89934,0 7.0605,3.16098 7.0605,7.06042z"/>
  <path class="fil1" d="M5.95404 9.19124c0,-0.660738 -0.00253389,-1.32148 0.00240192,-1.98211 0.00084463,-0.111359 -0.0306178,-0.146279 -0.141977,-0.141713 -0.205879,0.00836712 -0.412417,-0.00084463 -0.61856,0.00390641 -0.0834336,0.00213797 -0.114263,-0.0210366 -0.113339,-0.109406 0.00419676,-0.412232 0.00382723,-0.824729 0.000475105,-1.23712 -0.000739051,-0.0792633 0.0231745,-0.10542 0.103362,-0.103546 0.210709,0.00483023 0.421998,-0.0059652 0.632417,0.0044607 0.121891,0.0059652 0.147124,-0.0373485 0.144617,-0.150476 -0.00736412,-0.31378 -0.00736412,-0.628062 -0.000475105,-0.941842 0.00839351,-0.383172 0.11128,-0.741005 0.339515,-1.05257 0.288916,-0.394627 0.699565,-0.575088 1.17343,-0.59623 0.486613,-0.0215909 0.974439,-0.00958127 1.46161,-0.0148866 0.0679663,-0.000739051 0.0881847,0.0235441 0.0878943,0.0895836 -0.00213797,0.416957 -0.00258668,0.834099 0.000290342,1.25108 0.000659867,0.0741955 -0.0234649,0.0968421 -0.0962878,0.0957072 -0.234359,-0.00361607 -0.468743,-0.00184763 -0.702917,-0.00121416 -0.311933,0.000950209 -0.498543,0.161377 -0.518075,0.470142 -0.0156521,0.247503 -0.00430234,0.496484 -0.00997719,0.744726 -0.00213797,0.0883694 0.0503875,0.0823251 0.108957,0.0822195 0.356064,-0.000554289 0.712234,0.00353689 1.0683,-0.0025075 0.104549,-0.00184763 0.139021,0.0222507 0.12709,0.132237 -0.044871,0.414344 -0.0833281,0.829453 -0.118803,1.24475 -0.00810317,0.093754 -0.0509418,0.11165 -0.135114,0.110251 -0.280919,-0.00438152 -0.562128,-0.0029826 -0.843258,-0.00121416 -0.201867,0.00121416 -0.182308,-0.0296148 -0.182308,0.176369 -0.000923814,1.29323 -0.00269226,2.5866 0.00287702,3.87986 0.000580683,0.136593 -0.0343395,0.170483 -0.169454,0.168161 -0.482627,-0.00892141 -0.965333,-0.00939651 -1.44793,0.000184763 -0.135959,0.00271865 -0.158395,-0.0434721 -0.157286,-0.164703 0.00512057,-0.651342 0.00253389,-1.30268 0.00253389,-1.9541z"/>
 </g>
</svg>
