<?xml version="1.0" encoding="UTF-8"?>
<!DOCTYPE svg PUBLIC "-//W3C//DTD SVG 1.1//EN" "http://www.w3.org/Graphics/SVG/1.1/DTD/svg11.dtd">
<!-- Creator: CorelDRAW -->
<svg xmlns="http://www.w3.org/2000/svg" xml:space="preserve" width="50px" height="50px" style="shape-rendering:geometricPrecision; text-rendering:geometricPrecision; image-rendering:optimizeQuality; fill-rule:evenodd; clip-rule:evenodd"
viewBox="0 0 1269.68 1269.67"
 xmlns:xlink="http://www.w3.org/1999/xlink">
 <defs>
  <style type="text/css">
   <![CDATA[
    .fil0 {fill:#00ACED}
    .fil1 {fill:white;fill-rule:nonzero}
   ]]>
  </style>
 </defs>
 <g id="Слой_x0020_1">
  <metadata id="CorelCorpID_0Corel-Layer"/>
  <path class="fil0" d="M1269.68 634.835c0,350.608 -284.234,634.832 -634.842,634.832 -350.619,0 -634.835,-284.225 -634.835,-634.832 0,-350.617 284.215,-634.835 634.835,-634.835 350.608,0 634.842,284.218 634.842,634.835z"/>
  <path class="fil1" d="M522.188 930.292c-80.3327,0 -155.105,-23.5499 -218.058,-63.9097 11.1283,1.31479 22.4511,1.98642 33.9354,1.98642 66.6437,0 127.981,-22.743 176.666,-60.8933 -62.2484,-1.14866 -114.781,-42.275 -132.884,-98.792 8.68616,1.66129 17.5954,2.55126 26.7633,2.55126 12.9723,0 25.5387,-1.73723 37.4763,-4.98861 -65.075,-13.0648 -114.109,-70.5596 -114.109,-139.482 0,-0.60281 0.00237327,-1.19613 0.0118663,-1.78944 19.1807,10.656 41.1145,17.0543 64.4318,17.7924 -38.1693,-25.5103 -63.2808,-69.0502 -63.2808,-118.4 0,-26.0727 7.01301,-50.5055 19.2567,-71.516 70.1609,86.0618 174.979,142.695 293.203,148.626 -2.42548,-10.4092 -3.68568,-21.2669 -3.68568,-32.4165 0,-78.5575 63.6938,-142.247 142.256,-142.247 40.9128,0 77.8835,17.275 103.833,44.9212 32.4022,-6.37934 62.8465,-18.2196 90.3289,-34.5215 -10.6204,33.2186 -33.1735,61.095 -62.5451,78.7023 28.7735,-3.43886 56.1919,-11.0855 81.7021,-22.3989 -19.0716,28.5267 -43.1911,53.5813 -70.9821,73.6354 0.272926,6.0993 0.410575,12.2366 0.410575,18.4047 0,187.975 -143.08,404.735 -404.73,404.735z"/>
 </g>
</svg>
